<?xml version="1.0" encoding="iso-8859-1"?>
<!-- Uploaded to: SVG Repo, www.svgrepo.com, Generator: SVG Repo Mixer Tools -->
<svg fill="rgb(135, 206, 250)" height="100px" width="100px" version="1.1" id="Capa_1" xmlns="http://www.w3.org/2000/svg" xmlns:xlink="http://www.w3.org/1999/xlink" 
	 viewBox="0 0 28.805 28.805" xml:space="preserve">
<g>
	<path d="M23.798,8.76c-0.101-3.599-3.05-6.488-6.675-6.488c-3.424,0-6.244,2.576-6.635,5.893c-0.58-0.363-1.267-0.576-2.003-0.576
		c-2.088,0-3.777,1.691-3.777,3.777c0,0.158,0.029,0-0.65,0C1.816,11.366,0,13.184,0,15.422c0,2.041,1.51,3.73,3.471,4.016
		c0.154,0.027,0.312,0.043,0.475,0.043H23.09c0.068,0,0.09-0.008,0.092-0.014c0.086,0.004,0.17,0.014,0.254,0.014
		c2.967,0,5.369-2.406,5.369-5.371C28.804,11.266,26.595,8.946,23.798,8.76z"/>
	<polygon points="9.195,23.249 10.771,23.608 8.83,26.532 14.138,23.303 12.564,22.944 14.404,19.993 	"/>
	<polygon points="15.791,22.094 16.699,22.299 15.58,23.995 18.648,22.126 17.736,21.918 18.8,20.213 	"/>
	<g>
	</g>
	<g>
	</g>
	<g>
	</g>
	<g>
	</g>
	<g>
	</g>
	<g>
	</g>
	<g>
	</g>
	<g>
	</g>
	<g>
	</g>
	<g>
	</g>
	<g>
	</g>
	<g>
	</g>
	<g>
	</g>
	<g>
	</g>
	<g>
	</g>
</g>
</svg>